<?xml version="1.0" standalone="no"?>
<!DOCTYPE svg PUBLIC "-//W3C//DTD SVG 20010904//EN"
 "http://www.w3.org/TR/2001/REC-SVG-20010904/DTD/svg10.dtd">
<svg version="1.0" xmlns="http://www.w3.org/2000/svg"
 width="289.000000pt" height="289.000000pt" viewBox="0 0 289.000000 289.000000"
 preserveAspectRatio="xMidYMid meet">
<metadata>
Created by potrace 1.11, written by Peter Selinger 2001-2013
</metadata>
<g transform="translate(0.000000,289.000000) scale(0.100000,-0.100000)"
fill="#000000" stroke="none">
<path d="M1365 2868 c-38 -13 -301 -211 -391 -293 -6 -5 -44 -39 -85 -75 -92
-80 -393 -381 -476 -475 -34 -38 -74 -83 -88 -100 -63 -71 -248 -311 -273
-353 -23 -40 -27 -58 -26 -122 0 -89 10 -108 125 -255 323 -414 681 -769 1078
-1069 116 -88 166 -108 248 -101 61 5 90 20 208 109 281 212 623 535 860 811
33 38 71 82 84 97 55 63 194 246 219 288 23 39 27 56 27 125 -1 75 -3 84 -36
135 -31 47 -139 188 -196 256 -10 11 -40 47 -68 80 -195 232 -545 570 -795
768 -47 37 -93 74 -103 83 -53 41 -116 81 -146 92 -41 13 -125 13 -166 -1z
m284 -1222 l194 -194 -196 -196 -196 -197 -197 197 -197 196 194 194 c107 107
196 194 199 194 3 0 92 -87 199 -194z"/>
</g>
</svg>
